<?xml version="1.0" encoding="UTF-8" standalone="no"?>
<svg
   xmlns:dc="http://purl.org/dc/elements/1.1/"
   xmlns:cc="http://creativecommons.org/ns#"
   xmlns:rdf="http://www.w3.org/1999/02/22-rdf-syntax-ns#"
   xmlns:svg="http://www.w3.org/2000/svg"
   xmlns="http://www.w3.org/2000/svg"
   xmlns:sodipodi="http://sodipodi.sourceforge.net/DTD/sodipodi-0.dtd"
   xmlns:inkscape="http://www.inkscape.org/namespaces/inkscape"
   sodipodi:docname="train.svg"
   inkscape:version="1.0beta1 (fe3e306, 2019-09-17)"
   id="svg8"
   version="1.1"
   viewBox="0 0 2.9104166 2.1166667"
   height="8"
   width="11">
  <defs
     id="defs2" />
  <sodipodi:namedview
     units="px"
     inkscape:window-maximized="1"
     inkscape:window-y="32"
     inkscape:window-x="-8"
     inkscape:window-height="961"
     inkscape:window-width="1280"
     inkscape:snap-global="false"
     inkscape:guide-bbox="true"
     showguides="true"
     showgrid="false"
     inkscape:document-rotation="0"
     inkscape:current-layer="layer1"
     inkscape:document-units="px"
     inkscape:cy="4.6593908"
     inkscape:cx="6.5530841"
     inkscape:zoom="64.144686"
     inkscape:pageshadow="2"
     inkscape:pageopacity="0.0"
     borderopacity="1.0"
     bordercolor="#666666"
     pagecolor="#ffffff"
     id="base" />
  <metadata
     id="metadata5">
    <rdf:RDF>
      <cc:Work
         rdf:about="">
        <dc:format>image/svg+xml</dc:format>
        <dc:type
           rdf:resource="http://purl.org/dc/dcmitype/StillImage" />
        <dc:title></dc:title>
      </cc:Work>
    </rdf:RDF>
  </metadata>
  <g
     id="layer1"
     inkscape:groupmode="layer"
     inkscape:label="Layer 1">
    <g
       transform="matrix(0.01622598,0,0,0.01622598,-0.40691107,-0.182469)"
       id="g56">
      <path
         style="fill:none;stroke:#000000;stroke-width:0.2094px;stroke-linecap:butt;stroke-linejoin:miter;stroke-opacity:1"
         d="m 43.665495,105.81754 c 11.470255,7.0516 0.467937,21.4396 -7.461077,19.87862 -5.96442,-1.17421 -11.561344,-6.36739 -9.0852,-14.70791 2.505828,-8.44051 13.656572,-12.456193 24.024347,-5.28966 25.034973,17.30495 67.021215,5.04465 80.148935,7.59705 11.37087,2.21082 6.644,11.2045 3.5218,12.30229 -3.12219,1.09779 -10.44882,-2.06005 -3.61299,-7.86801"
         id="path10"
         inkscape:connector-curvature="0"
         sodipodi:nodetypes="csssszc" />
      <path
         style="fill:none;stroke:#000000;stroke-width:0.264583px;stroke-linecap:butt;stroke-linejoin:miter;stroke-opacity:1"
         d="m 144.10666,115.54666 c 11.01334,-0.74667 12.38815,9.50228 6.16,10.26666 -5.84688,0.71759 -6.90666,-6.53333 -1.68,-6.53332"
         id="path12"
         inkscape:connector-curvature="0"
         sodipodi:nodetypes="csc" />
      <path
         sodipodi:nodetypes="cssc"
         inkscape:connector-curvature="0"
         id="path16"
         d="m 154.74667,115.91999 c 6.94164,2.03515 9.26655,-1.70179 14.79254,0.07 6.8208,2.18695 4.96957,9.81358 -0.23254,9.63668 -5.4898,-0.18668 -6.44,-6.34666 -2.05334,-7.37332"
         style="fill:none;stroke:#000000;stroke-width:0.264583px;stroke-linecap:butt;stroke-linejoin:miter;stroke-opacity:1" />
      <path
         style="fill:none;stroke:#000000;stroke-width:0.264583px;stroke-linecap:butt;stroke-linejoin:miter;stroke-opacity:1"
         d="m 187.73971,69.675294 c 2.32101,-12.516163 -11.11241,0.697799 -16.51953,14.985451 -4.60577,12.170207 -8.08246,36.454385 1.0786,26.481475"
         id="path18"
         inkscape:connector-curvature="0"
         sodipodi:nodetypes="csc" />
      <path
         style="fill:none;stroke:#000000;stroke-width:0.264583px;stroke-linecap:butt;stroke-linejoin:miter;stroke-opacity:1"
         d="m 187.65302,62.546047 c -33.711,4.879955 -94.751444,6.168738 -115.160578,-0.181174"
         id="path20"
         inkscape:connector-curvature="0"
         sodipodi:nodetypes="cc" />
      <path
         style="fill:none;stroke:#000000;stroke-width:0.264583px;stroke-linecap:butt;stroke-linejoin:miter;stroke-opacity:1"
         d="M 25.07872,21.646895 C 79.503756,24.085927 73.278908,8.8286733 72.937601,61.031676"
         id="path22"
         inkscape:connector-curvature="0"
         sodipodi:nodetypes="cc" />
      <path
         style="fill:none;stroke:#000000;stroke-width:0.264583px;stroke-linecap:butt;stroke-linejoin:miter;stroke-opacity:1"
         d="m 25.454801,22.966828 c 3.695811,28.774532 4.11169,50.685413 0.679867,85.267652"
         id="path24"
         inkscape:connector-curvature="0"
         sodipodi:nodetypes="cc" />
      <path
         style="fill:none;stroke:#000000;stroke-width:0.264583px;stroke-linecap:butt;stroke-linejoin:miter;stroke-opacity:1"
         d="M 35.374196,26.926627 C 65.930301,26.225253 66.621385,23.999953 65.732646,44.877709 65.001989,62.041886 33.421498,64.583288 33.803541,46.851446"
         id="path26"
         inkscape:connector-curvature="0"
         sodipodi:nodetypes="csc" />
      <path
         style="fill:none;stroke:#000000;stroke-width:0.264583px;stroke-linecap:butt;stroke-linejoin:miter;stroke-opacity:1"
         d="m 147.1065,64.742696 4.32569,-51.095464"
         id="path28"
         inkscape:connector-curvature="0"
         sodipodi:nodetypes="cc" />
      <path
         style="fill:none;stroke:#000000;stroke-width:0.264583px;stroke-linecap:butt;stroke-linejoin:miter;stroke-opacity:1"
         d="M 158.06193,64.478709 165.9089,15.340498"
         id="path30"
         inkscape:connector-curvature="0"
         sodipodi:nodetypes="cc" />
      <path
         style="fill:none;stroke:#000000;stroke-width:0.264583px;stroke-linecap:butt;stroke-linejoin:miter;stroke-opacity:1"
         d="m 167.96143,64.148725 2.54184,-48.933587"
         id="path32"
         inkscape:connector-curvature="0"
         sodipodi:nodetypes="cc" />
      <path
         style="fill:none;stroke:#000000;stroke-width:0.264583px;stroke-linecap:butt;stroke-linejoin:miter;stroke-opacity:1"
         d="m 176.93697,63.158778 8.92831,-48.114294"
         id="path34"
         inkscape:connector-curvature="0"
         sodipodi:nodetypes="cc" />
      <path
         style="fill:none;stroke:#000000;stroke-width:0.264583px;stroke-linecap:butt;stroke-linejoin:miter;stroke-opacity:1"
         d="m 154,14.186667 c 10.17333,1.026666 17.75575,0.28934 7.27999,-1.96 -10.69457,-2.2963244 -13.01154,0.778266 -4.66666,0.933332"
         id="path36"
         inkscape:connector-curvature="0"
         sodipodi:nodetypes="csc" />
      <path
         style="fill:none;stroke:#000000;stroke-width:0.264583px;stroke-linecap:butt;stroke-linejoin:miter;stroke-opacity:1"
         d="m 184.61333,15.68 c -18.27716,1.681257 -16.2535,-4.226944 -5.50667,-3.92 11.38137,0.325066 6.74355,3.1074 2.14667,3.266666"
         id="path38"
         inkscape:connector-curvature="0"
         sodipodi:nodetypes="csc" />
    </g>
  </g>
</svg>
